<?xml version="1.0" encoding="UTF-8"?>
<svg xmlns="http://www.w3.org/2000/svg" viewBox="0 0 48 48" width="48px" height="48px">
<g id="surface2459620">
<path style=" stroke:none;fill-rule:nonzero;fill:rgb(0%,0%,0%);fill-opacity:1;" d="M 14.539062 6 L 16.664062 6 L 18.035156 11.496094 L 18.167969 11.496094 L 19.476562 6.003906 L 21.621094 6.003906 L 19.164062 14.039062 L 19.164062 20 L 17.050781 20 L 17.050781 14.296875 Z M 21.523438 11.921875 C 21.523438 11.140625 21.777344 10.511719 22.285156 10.050781 C 22.789062 9.582031 23.464844 9.347656 24.320312 9.347656 C 25.097656 9.347656 25.730469 9.59375 26.226562 10.085938 C 26.722656 10.574219 26.96875 11.207031 26.96875 11.980469 L 26.96875 17.214844 C 26.96875 18.082031 26.726562 18.761719 26.242188 19.257812 C 25.757812 19.753906 25.089844 20 24.234375 20 C 23.410156 20 22.757812 19.742188 22.261719 19.234375 C 21.769531 18.726562 21.523438 18.039062 21.523438 17.179688 Z M 23.453125 17.367188 C 23.453125 17.644531 23.519531 17.863281 23.660156 18.015625 C 23.792969 18.164062 23.980469 18.238281 24.230469 18.238281 C 24.484375 18.238281 24.683594 18.164062 24.835938 18.007812 C 24.984375 17.855469 25.0625 17.640625 25.0625 17.367188 L 25.0625 11.847656 C 25.0625 11.625 24.980469 11.445312 24.828125 11.308594 C 24.679688 11.175781 24.476562 11.105469 24.230469 11.105469 C 24.003906 11.105469 23.8125 11.175781 23.671875 11.308594 C 23.527344 11.445312 23.453125 11.625 23.453125 11.847656 Z M 33.917969 9.605469 L 33.917969 20 L 32.042969 20 L 32.042969 18.734375 C 31.695312 19.148438 31.339844 19.460938 30.960938 19.675781 C 30.589844 19.890625 30.226562 20 29.875 20 C 29.441406 20 29.117188 19.851562 28.894531 19.546875 C 28.675781 19.246094 28.566406 18.796875 28.566406 18.191406 L 28.566406 9.605469 L 30.441406 9.605469 L 30.441406 17.492188 C 30.441406 17.726562 30.480469 17.902344 30.558594 18.011719 C 30.636719 18.113281 30.765625 18.171875 30.941406 18.171875 C 31.082031 18.171875 31.253906 18.101562 31.460938 17.957031 C 31.675781 17.816406 31.867188 17.632812 32.042969 17.414062 L 32.042969 9.605469 Z M 33.917969 9.605469 "/>
<path style=" stroke:none;fill-rule:nonzero;fill:rgb(100%,100%,100%);fill-opacity:1;" d="M 38.800781 26.4375 C 38.800781 24.097656 36.859375 22.199219 34.46875 22.199219 C 31.058594 22.054688 27.566406 21.996094 24 22 C 20.4375 21.996094 16.945312 22.058594 13.53125 22.199219 C 11.144531 22.199219 9.203125 24.097656 9.203125 26.4375 C 9.0625 28.289062 8.996094 30.144531 9 32 C 8.996094 33.855469 9.058594 35.707031 9.203125 37.5625 C 9.203125 39.90625 11.140625 41.804688 13.53125 41.804688 C 16.945312 41.945312 20.4375 42.003906 24 42 C 27.5625 42.007812 31.058594 41.945312 34.46875 41.804688 C 36.859375 41.804688 38.800781 39.90625 38.800781 37.5625 C 38.941406 35.707031 39.007812 33.855469 39 32 C 39.007812 30.144531 38.941406 28.289062 38.800781 26.4375 Z M 38.800781 26.4375 "/>
<path style=" stroke:none;fill-rule:nonzero;fill:rgb(95.686275%,26.274511%,21.176471%);fill-opacity:1;" d="M 33.851562 30.347656 C 33.632812 30.347656 33.484375 30.402344 33.394531 30.527344 C 33.328125 30.617188 33.246094 30.824219 33.246094 31.277344 L 33.246094 32.050781 L 34.441406 32.050781 L 34.441406 31.277344 C 34.441406 30.832031 34.359375 30.621094 34.289062 30.519531 C 34.203125 30.402344 34.0625 30.347656 33.851562 30.347656 Z M 26.863281 30.386719 C 26.777344 30.429688 26.695312 30.492188 26.605469 30.578125 L 26.605469 36.453125 C 26.71875 36.566406 26.824219 36.644531 26.921875 36.695312 C 27.035156 36.753906 27.148438 36.777344 27.269531 36.777344 C 27.5 36.777344 27.570312 36.6875 27.59375 36.652344 C 27.652344 36.582031 27.714844 36.433594 27.714844 36.113281 L 27.714844 31.109375 C 27.714844 30.832031 27.660156 30.617188 27.5625 30.484375 C 27.429688 30.304688 27.164062 30.234375 26.863281 30.386719 Z M 26.863281 30.386719 "/>
<path style=" stroke:none;fill-rule:nonzero;fill:rgb(95.686275%,26.274511%,21.176471%);fill-opacity:1;" d="M 38.800781 26.4375 C 38.800781 24.097656 36.859375 22.199219 34.46875 22.199219 C 31.058594 22.054688 27.566406 21.996094 24 22 C 20.4375 21.996094 16.945312 22.058594 13.53125 22.199219 C 11.144531 22.199219 9.203125 24.097656 9.203125 26.4375 C 9.0625 28.289062 8.996094 30.144531 9 32 C 8.996094 33.855469 9.058594 35.707031 9.203125 37.5625 C 9.203125 39.90625 11.140625 41.804688 13.53125 41.804688 C 16.945312 41.945312 20.4375 42.003906 24 42 C 27.5625 42.007812 31.058594 41.945312 34.46875 41.804688 C 36.859375 41.804688 38.800781 39.90625 38.800781 37.5625 C 38.941406 35.707031 39.007812 33.855469 39 32 C 39.007812 30.144531 38.941406 28.289062 38.800781 26.4375 Z M 15.699219 38.382812 C 15.699219 38.492188 15.609375 38.585938 15.496094 38.585938 L 13.445312 38.585938 C 13.332031 38.585938 13.238281 38.492188 13.238281 38.382812 L 13.238281 27.351562 L 11.324219 27.351562 C 11.214844 27.351562 11.121094 27.261719 11.121094 27.148438 L 11.121094 25.246094 C 11.121094 25.132812 11.214844 25.039062 11.324219 25.039062 L 17.617188 25.039062 C 17.730469 25.039062 17.824219 25.132812 17.824219 25.246094 L 17.824219 27.148438 C 17.824219 27.261719 17.730469 27.351562 17.617188 27.351562 L 15.699219 27.351562 Z M 22.996094 38.382812 C 22.996094 38.492188 22.902344 38.585938 22.789062 38.585938 L 20.96875 38.585938 C 20.851562 38.585938 20.761719 38.492188 20.761719 38.382812 L 20.761719 37.832031 C 20.519531 38.0625 20.273438 38.25 20.023438 38.390625 C 19.625 38.617188 19.246094 38.726562 18.863281 38.726562 C 18.375 38.726562 18 38.550781 17.746094 38.210938 C 17.507812 37.886719 17.386719 37.40625 17.386719 36.789062 L 17.386719 28.6875 C 17.386719 28.578125 17.476562 28.484375 17.59375 28.484375 L 19.414062 28.484375 C 19.527344 28.484375 19.617188 28.578125 19.617188 28.6875 L 19.617188 36.117188 C 19.617188 36.359375 19.664062 36.460938 19.691406 36.5 C 19.703125 36.515625 19.742188 36.566406 19.894531 36.566406 C 19.949219 36.566406 20.066406 36.542969 20.285156 36.398438 C 20.460938 36.28125 20.617188 36.136719 20.757812 35.972656 L 20.757812 28.6875 C 20.757812 28.578125 20.851562 28.484375 20.964844 28.484375 L 22.785156 28.484375 C 22.898438 28.484375 22.992188 28.578125 22.992188 28.6875 L 22.992188 38.382812 Z M 30 36.371094 C 30 37.109375 29.839844 37.683594 29.527344 38.082031 C 29.199219 38.5 28.730469 38.707031 28.128906 38.707031 C 27.746094 38.707031 27.394531 38.628906 27.082031 38.472656 C 26.917969 38.390625 26.757812 38.28125 26.605469 38.148438 L 26.605469 38.382812 C 26.605469 38.496094 26.511719 38.585938 26.398438 38.585938 L 24.5625 38.585938 C 24.445312 38.585938 24.355469 38.496094 24.355469 38.382812 L 24.355469 25.242188 C 24.355469 25.128906 24.445312 25.039062 24.5625 25.039062 L 26.398438 25.039062 C 26.511719 25.039062 26.605469 25.128906 26.605469 25.242188 L 26.605469 28.960938 C 26.753906 28.824219 26.914062 28.710938 27.078125 28.617188 C 27.386719 28.445312 27.703125 28.359375 28.019531 28.359375 C 28.660156 28.359375 29.160156 28.597656 29.503906 29.066406 C 29.832031 29.515625 29.996094 30.167969 29.996094 31 Z M 36.730469 33.765625 C 36.730469 33.878906 36.636719 33.96875 36.523438 33.96875 L 33.25 33.96875 L 33.25 35.589844 C 33.25 36.183594 33.332031 36.4375 33.398438 36.542969 C 33.449219 36.628906 33.550781 36.742188 33.835938 36.742188 C 34.066406 36.742188 34.222656 36.6875 34.304688 36.578125 C 34.339844 36.519531 34.441406 36.296875 34.441406 35.589844 L 34.441406 34.914062 C 34.441406 34.800781 34.535156 34.710938 34.648438 34.710938 L 36.523438 34.710938 C 36.636719 34.710938 36.726562 34.800781 36.726562 34.914062 L 36.726562 35.644531 C 36.726562 36.6875 36.476562 37.488281 35.988281 38.027344 C 35.5 38.570312 34.761719 38.847656 33.792969 38.847656 C 32.921875 38.847656 32.21875 38.550781 31.714844 37.976562 C 31.214844 37.40625 30.957031 36.621094 30.957031 35.644531 L 30.957031 31.289062 C 30.957031 30.398438 31.234375 29.660156 31.789062 29.09375 C 32.339844 28.527344 33.0625 28.238281 33.933594 28.238281 C 34.820312 28.238281 35.519531 28.507812 36.003906 29.039062 C 36.484375 29.566406 36.726562 30.324219 36.726562 31.292969 L 36.726562 33.765625 Z M 36.730469 33.765625 "/>
<path style=" stroke:none;fill-rule:nonzero;fill:rgb(0%,0%,0%);fill-opacity:1;" d="M 8.472656 43.8125 L 7.085938 43.8125 L 7.085938 38.453125 L 8.503906 38.453125 C 9.128906 38.453125 9.628906 38.652344 10 39.050781 C 10.371094 39.449219 10.558594 39.992188 10.566406 40.683594 L 10.566406 41.554688 C 10.566406 42.257812 10.382812 42.808594 10.011719 43.210938 C 9.640625 43.613281 9.128906 43.8125 8.472656 43.8125 Z M 8.5625 39.355469 L 8.167969 39.355469 L 8.167969 42.914062 L 8.492188 42.914062 C 8.855469 42.914062 9.109375 42.820312 9.253906 42.628906 C 9.402344 42.441406 9.480469 42.109375 9.488281 41.644531 L 9.488281 40.714844 C 9.488281 40.214844 9.417969 39.867188 9.277344 39.667969 C 9.136719 39.472656 8.898438 39.367188 8.5625 39.355469 Z M 11.171875 41.949219 L 11.171875 41.695312 C 11.171875 41.089844 11.316406 40.617188 11.597656 40.273438 C 11.882812 39.929688 12.277344 39.757812 12.78125 39.757812 C 13.289062 39.757812 13.683594 39.929688 13.96875 40.273438 C 14.253906 40.617188 14.394531 41.089844 14.394531 41.699219 L 14.394531 41.953125 C 14.394531 42.558594 14.253906 43.035156 13.972656 43.375 C 13.6875 43.714844 13.292969 43.886719 12.785156 43.886719 C 12.277344 43.886719 11.878906 43.714844 11.597656 43.371094 C 11.3125 43.03125 11.171875 42.558594 11.171875 41.949219 Z M 12.214844 41.695312 L 12.214844 41.953125 C 12.214844 42.667969 12.40625 43.023438 12.785156 43.023438 C 13.136719 43.023438 13.324219 42.726562 13.351562 42.132812 L 13.359375 41.695312 C 13.359375 41.332031 13.308594 41.0625 13.207031 40.886719 C 13.105469 40.710938 12.964844 40.621094 12.78125 40.621094 C 12.601562 40.621094 12.464844 40.710938 12.363281 40.886719 C 12.265625 41.0625 12.214844 41.332031 12.214844 41.695312 Z M 17.414062 39.832031 L 17.941406 42.066406 L 18.296875 39.832031 L 19.296875 39.832031 L 18.46875 43.8125 L 17.605469 43.8125 L 17.042969 41.511719 L 16.480469 43.8125 L 15.613281 43.8125 L 14.789062 39.832031 L 15.789062 39.832031 L 16.144531 42.070312 L 16.671875 39.832031 Z M 19.785156 39.832031 L 20.765625 39.832031 L 20.792969 40.226562 C 21.027344 39.914062 21.335938 39.757812 21.714844 39.757812 C 22.402344 39.757812 22.753906 40.238281 22.769531 41.199219 L 22.769531 43.8125 L 21.726562 43.8125 L 21.726562 41.273438 C 21.726562 41.046875 21.695312 40.882812 21.625 40.78125 C 21.558594 40.679688 21.441406 40.632812 21.273438 40.632812 C 21.082031 40.632812 20.933594 40.726562 20.828125 40.921875 L 20.828125 43.8125 L 19.785156 43.8125 Z M 24.613281 38.160156 L 24.613281 43.8125 L 23.566406 43.8125 L 23.566406 38.160156 Z M 25.296875 41.949219 L 25.296875 41.695312 C 25.296875 41.089844 25.4375 40.617188 25.722656 40.273438 C 26.007812 39.929688 26.402344 39.757812 26.902344 39.757812 C 27.410156 39.757812 27.808594 39.929688 28.09375 40.273438 C 28.378906 40.617188 28.519531 41.089844 28.519531 41.699219 L 28.519531 41.953125 C 28.519531 42.558594 28.378906 43.035156 28.09375 43.375 C 27.8125 43.714844 27.417969 43.886719 26.910156 43.886719 C 26.402344 43.886719 26.003906 43.714844 25.71875 43.371094 C 25.4375 43.03125 25.296875 42.558594 25.296875 41.949219 Z M 26.339844 41.695312 L 26.339844 41.953125 C 26.339844 42.667969 26.53125 43.023438 26.910156 43.023438 C 27.261719 43.023438 27.449219 42.726562 27.480469 42.132812 L 27.480469 41.695312 C 27.480469 41.332031 27.429688 41.0625 27.332031 40.886719 C 27.230469 40.710938 27.089844 40.621094 26.902344 40.621094 C 26.726562 40.621094 26.589844 40.710938 26.492188 40.886719 C 26.390625 41.0625 26.339844 41.332031 26.339844 41.695312 Z M 32.105469 43.8125 L 31.054688 43.8125 C 31.027344 43.75 31 43.648438 30.96875 43.503906 C 30.785156 43.757812 30.53125 43.886719 30.210938 43.886719 C 29.878906 43.886719 29.601562 43.773438 29.382812 43.554688 C 29.164062 43.335938 29.050781 43.050781 29.050781 42.699219 C 29.050781 42.28125 29.1875 41.957031 29.453125 41.730469 C 29.71875 41.5 30.101562 41.386719 30.601562 41.382812 L 30.917969 41.382812 L 30.917969 41.0625 C 30.917969 40.882812 30.886719 40.753906 30.824219 40.679688 C 30.761719 40.609375 30.675781 40.574219 30.558594 40.574219 C 30.296875 40.574219 30.167969 40.722656 30.167969 41.027344 L 29.125 41.027344 C 29.125 40.660156 29.265625 40.355469 29.539062 40.117188 C 29.816406 39.878906 30.164062 39.757812 30.585938 39.757812 C 31.023438 39.757812 31.359375 39.871094 31.601562 40.097656 C 31.839844 40.324219 31.957031 40.648438 31.957031 41.070312 L 31.957031 42.945312 C 31.964844 43.285156 32.011719 43.554688 32.105469 43.75 Z M 30.441406 43.070312 C 30.558594 43.070312 30.65625 43.046875 30.738281 43 C 30.816406 42.953125 30.878906 42.898438 30.917969 42.832031 L 30.917969 42.007812 L 30.667969 42.007812 C 30.492188 42.007812 30.351562 42.0625 30.25 42.175781 C 30.148438 42.289062 30.097656 42.4375 30.097656 42.625 C 30.097656 42.921875 30.210938 43.070312 30.441406 43.070312 Z M 32.574219 42 L 32.574219 41.699219 C 32.574219 41.050781 32.683594 40.5625 32.902344 40.242188 C 33.125 39.917969 33.445312 39.757812 33.871094 39.757812 C 34.175781 39.757812 34.429688 39.890625 34.632812 40.15625 L 34.632812 38.160156 L 35.683594 38.160156 L 35.683594 43.8125 L 34.738281 43.8125 L 34.691406 43.40625 C 34.476562 43.726562 34.199219 43.886719 33.863281 43.886719 C 33.445312 43.886719 33.128906 43.726562 32.910156 43.40625 C 32.691406 43.089844 32.578125 42.621094 32.574219 42 Z M 33.617188 41.6875 L 33.617188 41.960938 C 33.617188 42.355469 33.660156 42.628906 33.742188 42.785156 C 33.828125 42.941406 33.96875 43.015625 34.164062 43.015625 C 34.371094 43.015625 34.527344 42.925781 34.632812 42.742188 L 34.632812 40.925781 C 34.53125 40.730469 34.375 40.632812 34.171875 40.632812 C 33.980469 40.632812 33.839844 40.707031 33.75 40.863281 C 33.660156 41.015625 33.617188 41.292969 33.617188 41.6875 Z M 38.054688 43.886719 C 37.519531 43.886719 37.101562 43.726562 36.804688 43.40625 C 36.503906 43.089844 36.355469 42.632812 36.355469 42.039062 L 36.355469 41.722656 C 36.355469 41.09375 36.492188 40.609375 36.765625 40.269531 C 37.042969 39.929688 37.4375 39.757812 37.949219 39.757812 C 38.449219 39.757812 38.824219 39.917969 39.078125 40.238281 C 39.328125 40.558594 39.460938 41.03125 39.464844 41.660156 L 39.464844 42.171875 L 37.394531 42.171875 C 37.40625 42.464844 37.472656 42.679688 37.585938 42.816406 C 37.703125 42.953125 37.878906 43.023438 38.121094 43.023438 C 38.46875 43.023438 38.761719 42.902344 38.992188 42.664062 L 39.402344 43.292969 C 39.273438 43.46875 39.089844 43.613281 38.84375 43.722656 C 38.601562 43.832031 38.339844 43.886719 38.054688 43.886719 Z M 37.398438 41.441406 L 38.441406 41.441406 L 38.441406 41.347656 C 38.4375 41.109375 38.398438 40.929688 38.324219 40.808594 C 38.25 40.683594 38.125 40.621094 37.941406 40.621094 C 37.757812 40.621094 37.625 40.6875 37.542969 40.816406 C 37.460938 40.949219 37.414062 41.15625 37.398438 41.441406 Z M 42.03125 39.804688 L 42.019531 40.835938 L 41.671875 40.808594 C 41.386719 40.808594 41.195312 40.929688 41.09375 41.179688 L 41.09375 43.8125 L 40.046875 43.8125 L 40.046875 39.832031 L 41.03125 39.832031 L 41.0625 40.261719 C 41.226562 39.925781 41.453125 39.757812 41.742188 39.757812 C 41.859375 39.757812 41.953125 39.773438 42.03125 39.804688 Z M 42.03125 39.804688 "/>
</g>
</svg>
